<mxfile host="app.diagrams.net" modified="2023-06-24T19:12:58.239Z" agent="Mozilla/5.0 (Macintosh; Intel Mac OS X 10_15_7) AppleWebKit/537.36 (KHTML, like Gecko) Chrome/114.0.0.0 Safari/537.36" etag="Jt03krRsiBX7GOwiZGqB" version="21.3.8" type="github">
  <diagram name="Page-1" id="2YBvvXClWsGukQMizWep">
    <mxGraphModel dx="2133" dy="755" grid="1" gridSize="10" guides="1" tooltips="1" connect="1" arrows="1" fold="1" page="1" pageScale="1" pageWidth="850" pageHeight="1100" math="0" shadow="0">
      <root>
        <mxCell id="0" />
        <mxCell id="1" parent="0" />
        <mxCell id="VWIVNXtLc2JzitBILpdr-26" value="" style="rounded=0;whiteSpace=wrap;html=1;" vertex="1" parent="1">
          <mxGeometry x="-440" y="840" width="1240" height="570" as="geometry" />
        </mxCell>
        <mxCell id="VWIVNXtLc2JzitBILpdr-33" value="" style="rounded=0;whiteSpace=wrap;html=1;" vertex="1" parent="1">
          <mxGeometry x="-430" y="1120" width="1215" height="210" as="geometry" />
        </mxCell>
        <mxCell id="VWIVNXtLc2JzitBILpdr-32" value="" style="rounded=0;whiteSpace=wrap;html=1;" vertex="1" parent="1">
          <mxGeometry x="-430" y="940" width="1215" height="180" as="geometry" />
        </mxCell>
        <mxCell id="VWIVNXtLc2JzitBILpdr-18" value="" style="rounded=0;whiteSpace=wrap;html=1;" vertex="1" parent="1">
          <mxGeometry x="-440" y="270" width="1240" height="570" as="geometry" />
        </mxCell>
        <mxCell id="Eow9V9qrAzXgovBorhqP-73" value="" style="rounded=0;whiteSpace=wrap;html=1;" parent="1" vertex="1">
          <mxGeometry x="210" y="290" width="540" height="160" as="geometry" />
        </mxCell>
        <mxCell id="aM9ryv3xv72pqoxQDRHE-1" value="StudentUser&lt;br&gt;Controller" style="shape=umlLifeline;perimeter=lifelinePerimeter;whiteSpace=wrap;html=1;container=0;dropTarget=0;collapsible=0;recursiveResize=0;outlineConnect=0;portConstraint=eastwest;newEdgeStyle={&quot;edgeStyle&quot;:&quot;elbowEdgeStyle&quot;,&quot;elbow&quot;:&quot;vertical&quot;,&quot;curved&quot;:0,&quot;rounded&quot;:0};size=40;" parent="1" vertex="1">
          <mxGeometry x="40" y="40" width="100" height="550" as="geometry" />
        </mxCell>
        <mxCell id="Eow9V9qrAzXgovBorhqP-82" value="" style="rounded=0;whiteSpace=wrap;html=1;" parent="1" vertex="1">
          <mxGeometry x="210" y="450" width="540" height="130" as="geometry" />
        </mxCell>
        <mxCell id="aM9ryv3xv72pqoxQDRHE-5" value="StudentUser&lt;br&gt;Service" style="shape=umlLifeline;perimeter=lifelinePerimeter;whiteSpace=wrap;html=1;container=0;dropTarget=0;collapsible=0;recursiveResize=0;outlineConnect=0;portConstraint=eastwest;newEdgeStyle={&quot;edgeStyle&quot;:&quot;elbowEdgeStyle&quot;,&quot;elbow&quot;:&quot;vertical&quot;,&quot;curved&quot;:0,&quot;rounded&quot;:0};" parent="1" vertex="1">
          <mxGeometry x="220" y="40" width="100" height="540" as="geometry" />
        </mxCell>
        <mxCell id="Eow9V9qrAzXgovBorhqP-1" value="StudentUser&lt;br&gt;Dao" style="shape=umlLifeline;perimeter=lifelinePerimeter;whiteSpace=wrap;html=1;container=0;dropTarget=0;collapsible=0;recursiveResize=0;outlineConnect=0;portConstraint=eastwest;newEdgeStyle={&quot;edgeStyle&quot;:&quot;elbowEdgeStyle&quot;,&quot;elbow&quot;:&quot;vertical&quot;,&quot;curved&quot;:0,&quot;rounded&quot;:0};" parent="1" vertex="1">
          <mxGeometry x="410" y="40" width="100" height="870" as="geometry" />
        </mxCell>
        <mxCell id="Eow9V9qrAzXgovBorhqP-3" value="Database" style="shape=umlLifeline;perimeter=lifelinePerimeter;whiteSpace=wrap;html=1;container=0;dropTarget=0;collapsible=0;recursiveResize=0;outlineConnect=0;portConstraint=eastwest;newEdgeStyle={&quot;edgeStyle&quot;:&quot;elbowEdgeStyle&quot;,&quot;elbow&quot;:&quot;vertical&quot;,&quot;curved&quot;:0,&quot;rounded&quot;:0};" parent="1" vertex="1">
          <mxGeometry x="600" y="40" width="100" height="860" as="geometry" />
        </mxCell>
        <mxCell id="Eow9V9qrAzXgovBorhqP-5" value="Student" style="shape=umlActor;verticalLabelPosition=bottom;verticalAlign=top;html=1;outlineConnect=0;" parent="1" vertex="1">
          <mxGeometry x="-400" y="40" width="30" height="60" as="geometry" />
        </mxCell>
        <mxCell id="Eow9V9qrAzXgovBorhqP-17" value="1.Login" style="text;html=1;strokeColor=none;fillColor=none;align=center;verticalAlign=middle;whiteSpace=wrap;rounded=0;" parent="1" vertex="1">
          <mxGeometry x="-320" y="100" width="60" height="30" as="geometry" />
        </mxCell>
        <mxCell id="Eow9V9qrAzXgovBorhqP-18" value="Login" style="shape=umlLifeline;perimeter=lifelinePerimeter;whiteSpace=wrap;html=1;container=0;dropTarget=0;collapsible=0;recursiveResize=0;outlineConnect=0;portConstraint=eastwest;newEdgeStyle={&quot;edgeStyle&quot;:&quot;elbowEdgeStyle&quot;,&quot;elbow&quot;:&quot;vertical&quot;,&quot;curved&quot;:0,&quot;rounded&quot;:0};size=40;" parent="1" vertex="1">
          <mxGeometry x="-80" y="40" width="100" height="550" as="geometry" />
        </mxCell>
        <mxCell id="Eow9V9qrAzXgovBorhqP-19" value="Web" style="shape=umlLifeline;perimeter=lifelinePerimeter;whiteSpace=wrap;html=1;container=0;dropTarget=0;collapsible=0;recursiveResize=0;outlineConnect=0;portConstraint=eastwest;newEdgeStyle={&quot;edgeStyle&quot;:&quot;elbowEdgeStyle&quot;,&quot;elbow&quot;:&quot;vertical&quot;,&quot;curved&quot;:0,&quot;rounded&quot;:0};size=40;" parent="1" vertex="1">
          <mxGeometry x="-250" y="40" width="100" height="550" as="geometry" />
        </mxCell>
        <mxCell id="Eow9V9qrAzXgovBorhqP-30" value="2.Jump to&lt;br&gt;Login&amp;nbsp; Page" style="text;html=1;strokeColor=none;fillColor=none;align=center;verticalAlign=middle;whiteSpace=wrap;rounded=0;" parent="1" vertex="1">
          <mxGeometry x="-180" y="110" width="130" height="70" as="geometry" />
        </mxCell>
        <mxCell id="Eow9V9qrAzXgovBorhqP-49" value="3.Input&lt;br&gt;Login&lt;br&gt;message" style="text;html=1;align=center;verticalAlign=middle;resizable=0;points=[];autosize=1;strokeColor=none;fillColor=none;" parent="1" vertex="1">
          <mxGeometry x="-5" y="150" width="70" height="60" as="geometry" />
        </mxCell>
        <mxCell id="Eow9V9qrAzXgovBorhqP-51" value="4.login(usernameOrEmail, password)" style="text;html=1;strokeColor=none;fillColor=none;align=center;verticalAlign=middle;whiteSpace=wrap;rounded=0;" parent="1" vertex="1">
          <mxGeometry x="120" y="210" width="130" height="30" as="geometry" />
        </mxCell>
        <mxCell id="Eow9V9qrAzXgovBorhqP-61" value="7.StudentUser" style="text;html=1;align=center;verticalAlign=middle;resizable=0;points=[];autosize=1;strokeColor=none;fillColor=none;" parent="1" vertex="1">
          <mxGeometry x="510" y="340" width="100" height="30" as="geometry" />
        </mxCell>
        <mxCell id="Eow9V9qrAzXgovBorhqP-79" value="&lt;meta charset=&quot;utf-8&quot;&gt;&lt;span style=&quot;color: rgb(240, 240, 240); font-family: Helvetica; font-size: 12px; font-style: normal; font-variant-ligatures: normal; font-variant-caps: normal; font-weight: 400; letter-spacing: normal; orphans: 2; text-align: center; text-indent: 0px; text-transform: none; widows: 2; word-spacing: 0px; -webkit-text-stroke-width: 0px; background-color: rgb(42, 37, 47); text-decoration-thickness: initial; text-decoration-style: initial; text-decoration-color: initial; float: none; display: inline !important;&quot;&gt;9.RuntimeException&lt;/span&gt;&lt;br style=&quot;border-color: rgb(0, 0, 0); color: rgb(240, 240, 240); font-family: Helvetica; font-size: 12px; font-style: normal; font-variant-ligatures: normal; font-variant-caps: normal; font-weight: 400; letter-spacing: normal; orphans: 2; text-align: center; text-indent: 0px; text-transform: none; widows: 2; word-spacing: 0px; -webkit-text-stroke-width: 0px; background-color: rgb(42, 37, 47); text-decoration-thickness: initial; text-decoration-style: initial; text-decoration-color: initial;&quot;&gt;&lt;span style=&quot;color: rgb(240, 240, 240); font-family: Helvetica; font-size: 12px; font-style: normal; font-variant-ligatures: normal; font-variant-caps: normal; font-weight: 400; letter-spacing: normal; orphans: 2; text-align: center; text-indent: 0px; text-transform: none; widows: 2; word-spacing: 0px; -webkit-text-stroke-width: 0px; background-color: rgb(42, 37, 47); text-decoration-thickness: initial; text-decoration-style: initial; text-decoration-color: initial; float: none; display: inline !important;&quot;&gt;message&lt;/span&gt;" style="text;html=1;strokeColor=none;fillColor=none;align=center;verticalAlign=middle;whiteSpace=wrap;rounded=0;" parent="1" vertex="1">
          <mxGeometry x="160" y="620" width="60" height="30" as="geometry" />
        </mxCell>
        <mxCell id="Eow9V9qrAzXgovBorhqP-81" value="11.Back to home page" style="text;html=1;strokeColor=none;fillColor=none;align=center;verticalAlign=middle;whiteSpace=wrap;rounded=0;" parent="1" vertex="1">
          <mxGeometry x="-170" y="690" width="110" height="30" as="geometry" />
        </mxCell>
        <mxCell id="Eow9V9qrAzXgovBorhqP-108" style="edgeStyle=orthogonalEdgeStyle;rounded=0;orthogonalLoop=1;jettySize=auto;html=1;exitX=1;exitY=0.03;exitDx=0;exitDy=0;exitPerimeter=0;entryX=0;entryY=0.03;entryDx=0;entryDy=0;entryPerimeter=0;" parent="1" source="Eow9V9qrAzXgovBorhqP-92" target="Eow9V9qrAzXgovBorhqP-93" edge="1">
          <mxGeometry relative="1" as="geometry" />
        </mxCell>
        <mxCell id="VWIVNXtLc2JzitBILpdr-25" style="edgeStyle=orthogonalEdgeStyle;rounded=0;orthogonalLoop=1;jettySize=auto;html=1;exitX=0;exitY=0.52;exitDx=0;exitDy=0;exitPerimeter=0;entryX=1;entryY=0.52;entryDx=0;entryDy=0;entryPerimeter=0;" edge="1" parent="1" source="Eow9V9qrAzXgovBorhqP-92" target="Eow9V9qrAzXgovBorhqP-98">
          <mxGeometry relative="1" as="geometry" />
        </mxCell>
        <mxCell id="VWIVNXtLc2JzitBILpdr-39" style="edgeStyle=orthogonalEdgeStyle;rounded=0;orthogonalLoop=1;jettySize=auto;html=1;exitX=0;exitY=0.77;exitDx=0;exitDy=0;exitPerimeter=0;entryX=1;entryY=0.77;entryDx=0;entryDy=0;entryPerimeter=0;" edge="1" parent="1" source="Eow9V9qrAzXgovBorhqP-92" target="Eow9V9qrAzXgovBorhqP-98">
          <mxGeometry relative="1" as="geometry" />
        </mxCell>
        <mxCell id="VWIVNXtLc2JzitBILpdr-43" style="edgeStyle=orthogonalEdgeStyle;rounded=0;orthogonalLoop=1;jettySize=auto;html=1;exitX=0;exitY=0.94;exitDx=0;exitDy=0;exitPerimeter=0;entryX=1;entryY=0.94;entryDx=0;entryDy=0;entryPerimeter=0;" edge="1" parent="1" source="Eow9V9qrAzXgovBorhqP-92" target="Eow9V9qrAzXgovBorhqP-98">
          <mxGeometry relative="1" as="geometry" />
        </mxCell>
        <mxCell id="Eow9V9qrAzXgovBorhqP-92" value="" style="rounded=0;whiteSpace=wrap;html=1;points=[[0,0,0,0,0],[0,0.03,0,0,0],[0,0.06,0,0,0],[0,0.1,0,0,0],[0,0.13,0,0,0],[0,0.16,0,0,0],[0,0.19,0,0,0],[0,0.23,0,0,0],[0,0.25,0,0,0],[0,0.26,0,0,0],[0,0.29,0,0,0],[0,0.32,0,0,0],[0,0.35,0,0,0],[0,0.39,0,0,0],[0,0.42,0,0,0],[0,0.45,0,0,0],[0,0.48,0,0,0],[0,0.5,0,0,0],[0,0.52,0,0,0],[0,0.55,0,0,0],[0,0.58,0,0,0],[0,0.61,0,0,0],[0,0.65,0,0,0],[0,0.68,0,0,0],[0,0.71,0,0,0],[0,0.74,0,0,0],[0,0.75,0,0,0],[0,0.77,0,0,0],[0,0.81,0,0,0],[0,0.84,0,0,0],[0,0.87,0,0,0],[0,0.9,0,0,0],[0,0.94,0,0,0],[0,0.97,0,0,0],[0,1,0,0,0],[0.25,0,0,0,0],[0.25,1,0,0,0],[0.5,0,0,0,0],[0.5,1,0,0,0],[0.75,0,0,0,0],[0.75,1,0,0,0],[1,0,0,0,0],[1,0.03,0,0,0],[1,0.06,0,0,0],[1,0.1,0,0,0],[1,0.13,0,0,0],[1,0.16,0,0,0],[1,0.19,0,0,0],[1,0.23,0,0,0],[1,0.25,0,0,0],[1,0.26,0,0,0],[1,0.29,0,0,0],[1,0.32,0,0,0],[1,0.35,0,0,0],[1,0.39,0,0,0],[1,0.42,0,0,0],[1,0.45,0,0,0],[1,0.48,0,0,0],[1,0.5,0,0,0],[1,0.52,0,0,0],[1,0.55,0,0,0],[1,0.58,0,0,0],[1,0.61,0,0,0],[1,0.65,0,0,0],[1,0.68,0,0,0],[1,0.71,0,0,0],[1,0.74,0,0,0],[1,0.75,0,0,0],[1,0.77,0,0,0],[1,0.81,0,0,0],[1,0.84,0,0,0],[1,0.87,0,0,0],[1,0.9,0,0,0],[1,0.94,0,0,0],[1,0.97,0,0,0],[1,1,0,0,0]];" parent="1" vertex="1">
          <mxGeometry x="-207.5" y="130" width="15" height="1240" as="geometry" />
        </mxCell>
        <mxCell id="Eow9V9qrAzXgovBorhqP-109" style="edgeStyle=orthogonalEdgeStyle;rounded=0;orthogonalLoop=1;jettySize=auto;html=1;exitX=1;exitY=0.06;exitDx=0;exitDy=0;exitPerimeter=0;entryX=0;entryY=0.06;entryDx=0;entryDy=0;entryPerimeter=0;" parent="1" source="Eow9V9qrAzXgovBorhqP-93" target="Eow9V9qrAzXgovBorhqP-99" edge="1">
          <mxGeometry relative="1" as="geometry" />
        </mxCell>
        <mxCell id="Eow9V9qrAzXgovBorhqP-98" value="" style="rounded=0;whiteSpace=wrap;html=1;points=[[0,0,0,0,0],[0,0.03,0,0,0],[0,0.06,0,0,0],[0,0.1,0,0,0],[0,0.13,0,0,0],[0,0.16,0,0,0],[0,0.19,0,0,0],[0,0.23,0,0,0],[0,0.25,0,0,0],[0,0.26,0,0,0],[0,0.29,0,0,0],[0,0.32,0,0,0],[0,0.35,0,0,0],[0,0.39,0,0,0],[0,0.42,0,0,0],[0,0.45,0,0,0],[0,0.48,0,0,0],[0,0.5,0,0,0],[0,0.52,0,0,0],[0,0.55,0,0,0],[0,0.58,0,0,0],[0,0.61,0,0,0],[0,0.65,0,0,0],[0,0.68,0,0,0],[0,0.71,0,0,0],[0,0.74,0,0,0],[0,0.75,0,0,0],[0,0.77,0,0,0],[0,0.81,0,0,0],[0,0.84,0,0,0],[0,0.87,0,0,0],[0,0.9,0,0,0],[0,0.94,0,0,0],[0,0.97,0,0,0],[0,1,0,0,0],[0.25,0,0,0,0],[0.25,1,0,0,0],[0.5,0,0,0,0],[0.5,1,0,0,0],[0.75,0,0,0,0],[0.75,1,0,0,0],[1,0,0,0,0],[1,0.03,0,0,0],[1,0.06,0,0,0],[1,0.1,0,0,0],[1,0.13,0,0,0],[1,0.16,0,0,0],[1,0.19,0,0,0],[1,0.23,0,0,0],[1,0.25,0,0,0],[1,0.26,0,0,0],[1,0.29,0,0,0],[1,0.32,0,0,0],[1,0.35,0,0,0],[1,0.39,0,0,0],[1,0.42,0,0,0],[1,0.45,0,0,0],[1,0.48,0,0,0],[1,0.5,0,0,0],[1,0.52,0,0,0],[1,0.55,0,0,0],[1,0.58,0,0,0],[1,0.61,0,0,0],[1,0.65,0,0,0],[1,0.68,0,0,0],[1,0.71,0,0,0],[1,0.74,0,0,0],[1,0.75,0,0,0],[1,0.77,0,0,0],[1,0.81,0,0,0],[1,0.84,0,0,0],[1,0.87,0,0,0],[1,0.9,0,0,0],[1,0.94,0,0,0],[1,0.97,0,0,0],[1,1,0,0,0]];" parent="1" vertex="1">
          <mxGeometry x="-392.5" y="130" width="15" height="1240" as="geometry" />
        </mxCell>
        <mxCell id="VWIVNXtLc2JzitBILpdr-24" style="edgeStyle=orthogonalEdgeStyle;rounded=0;orthogonalLoop=1;jettySize=auto;html=1;exitX=0;exitY=0.5;exitDx=0;exitDy=0;exitPerimeter=0;entryX=1;entryY=0.5;entryDx=0;entryDy=0;entryPerimeter=0;" edge="1" parent="1" source="Eow9V9qrAzXgovBorhqP-93" target="Eow9V9qrAzXgovBorhqP-92">
          <mxGeometry relative="1" as="geometry" />
        </mxCell>
        <mxCell id="VWIVNXtLc2JzitBILpdr-38" style="edgeStyle=orthogonalEdgeStyle;rounded=0;orthogonalLoop=1;jettySize=auto;html=1;exitX=0;exitY=0.74;exitDx=0;exitDy=0;exitPerimeter=0;entryX=1;entryY=0.74;entryDx=0;entryDy=0;entryPerimeter=0;" edge="1" parent="1" source="Eow9V9qrAzXgovBorhqP-93" target="Eow9V9qrAzXgovBorhqP-92">
          <mxGeometry relative="1" as="geometry" />
        </mxCell>
        <mxCell id="VWIVNXtLc2JzitBILpdr-42" style="edgeStyle=orthogonalEdgeStyle;rounded=0;orthogonalLoop=1;jettySize=auto;html=1;exitX=0;exitY=0.9;exitDx=0;exitDy=0;exitPerimeter=0;entryX=1;entryY=0.9;entryDx=0;entryDy=0;entryPerimeter=0;" edge="1" parent="1" source="Eow9V9qrAzXgovBorhqP-93" target="Eow9V9qrAzXgovBorhqP-92">
          <mxGeometry relative="1" as="geometry" />
        </mxCell>
        <mxCell id="Eow9V9qrAzXgovBorhqP-93" value="" style="rounded=0;whiteSpace=wrap;html=1;points=[[0,0,0,0,0],[0,0.03,0,0,0],[0,0.06,0,0,0],[0,0.1,0,0,0],[0,0.13,0,0,0],[0,0.16,0,0,0],[0,0.19,0,0,0],[0,0.23,0,0,0],[0,0.25,0,0,0],[0,0.26,0,0,0],[0,0.29,0,0,0],[0,0.32,0,0,0],[0,0.35,0,0,0],[0,0.39,0,0,0],[0,0.42,0,0,0],[0,0.45,0,0,0],[0,0.48,0,0,0],[0,0.5,0,0,0],[0,0.52,0,0,0],[0,0.55,0,0,0],[0,0.58,0,0,0],[0,0.61,0,0,0],[0,0.65,0,0,0],[0,0.68,0,0,0],[0,0.71,0,0,0],[0,0.74,0,0,0],[0,0.75,0,0,0],[0,0.77,0,0,0],[0,0.81,0,0,0],[0,0.84,0,0,0],[0,0.87,0,0,0],[0,0.9,0,0,0],[0,0.94,0,0,0],[0,0.97,0,0,0],[0,1,0,0,0],[0.25,0,0,0,0],[0.25,1,0,0,0],[0.5,0,0,0,0],[0.5,1,0,0,0],[0.75,0,0,0,0],[0.75,1,0,0,0],[1,0,0,0,0],[1,0.03,0,0,0],[1,0.06,0,0,0],[1,0.1,0,0,0],[1,0.13,0,0,0],[1,0.16,0,0,0],[1,0.19,0,0,0],[1,0.23,0,0,0],[1,0.25,0,0,0],[1,0.26,0,0,0],[1,0.29,0,0,0],[1,0.32,0,0,0],[1,0.35,0,0,0],[1,0.39,0,0,0],[1,0.42,0,0,0],[1,0.45,0,0,0],[1,0.48,0,0,0],[1,0.5,0,0,0],[1,0.52,0,0,0],[1,0.55,0,0,0],[1,0.58,0,0,0],[1,0.61,0,0,0],[1,0.65,0,0,0],[1,0.68,0,0,0],[1,0.71,0,0,0],[1,0.74,0,0,0],[1,0.75,0,0,0],[1,0.77,0,0,0],[1,0.81,0,0,0],[1,0.84,0,0,0],[1,0.87,0,0,0],[1,0.9,0,0,0],[1,0.94,0,0,0],[1,0.97,0,0,0],[1,1,0,0,0]];" parent="1" vertex="1">
          <mxGeometry x="-40" y="130" width="15" height="1240" as="geometry" />
        </mxCell>
        <mxCell id="Eow9V9qrAzXgovBorhqP-107" style="edgeStyle=orthogonalEdgeStyle;rounded=0;orthogonalLoop=1;jettySize=auto;html=1;exitX=1;exitY=0;exitDx=0;exitDy=0;entryX=0;entryY=0;entryDx=0;entryDy=0;entryPerimeter=0;" parent="1" source="Eow9V9qrAzXgovBorhqP-98" target="Eow9V9qrAzXgovBorhqP-92" edge="1">
          <mxGeometry relative="1" as="geometry">
            <Array as="points">
              <mxPoint x="-230" y="130" />
              <mxPoint x="-230" y="130" />
            </Array>
          </mxGeometry>
        </mxCell>
        <mxCell id="Eow9V9qrAzXgovBorhqP-110" style="edgeStyle=orthogonalEdgeStyle;rounded=0;orthogonalLoop=1;jettySize=auto;html=1;exitX=1;exitY=0.1;exitDx=0;exitDy=0;exitPerimeter=0;entryX=0;entryY=0.1;entryDx=0;entryDy=0;entryPerimeter=0;" parent="1" source="Eow9V9qrAzXgovBorhqP-99" target="Eow9V9qrAzXgovBorhqP-100" edge="1">
          <mxGeometry relative="1" as="geometry" />
        </mxCell>
        <mxCell id="VWIVNXtLc2JzitBILpdr-23" style="edgeStyle=orthogonalEdgeStyle;rounded=0;orthogonalLoop=1;jettySize=auto;html=1;exitX=0;exitY=0.48;exitDx=0;exitDy=0;exitPerimeter=0;entryX=1;entryY=0.48;entryDx=0;entryDy=0;entryPerimeter=0;" edge="1" parent="1" source="Eow9V9qrAzXgovBorhqP-99" target="Eow9V9qrAzXgovBorhqP-93">
          <mxGeometry relative="1" as="geometry" />
        </mxCell>
        <mxCell id="VWIVNXtLc2JzitBILpdr-37" style="edgeStyle=orthogonalEdgeStyle;rounded=0;orthogonalLoop=1;jettySize=auto;html=1;exitX=0;exitY=0.71;exitDx=0;exitDy=0;exitPerimeter=0;entryX=1;entryY=0.71;entryDx=0;entryDy=0;entryPerimeter=0;" edge="1" parent="1" source="Eow9V9qrAzXgovBorhqP-99" target="Eow9V9qrAzXgovBorhqP-93">
          <mxGeometry relative="1" as="geometry" />
        </mxCell>
        <mxCell id="VWIVNXtLc2JzitBILpdr-41" style="edgeStyle=orthogonalEdgeStyle;rounded=0;orthogonalLoop=1;jettySize=auto;html=1;exitX=0;exitY=0.87;exitDx=0;exitDy=0;exitPerimeter=0;entryX=1;entryY=0.87;entryDx=0;entryDy=0;entryPerimeter=0;" edge="1" parent="1" source="Eow9V9qrAzXgovBorhqP-99" target="Eow9V9qrAzXgovBorhqP-93">
          <mxGeometry relative="1" as="geometry" />
        </mxCell>
        <mxCell id="Eow9V9qrAzXgovBorhqP-99" value="" style="rounded=0;whiteSpace=wrap;html=1;points=[[0,0,0,0,0],[0,0.03,0,0,0],[0,0.06,0,0,0],[0,0.1,0,0,0],[0,0.13,0,0,0],[0,0.16,0,0,0],[0,0.19,0,0,0],[0,0.23,0,0,0],[0,0.25,0,0,0],[0,0.26,0,0,0],[0,0.29,0,0,0],[0,0.32,0,0,0],[0,0.35,0,0,0],[0,0.39,0,0,0],[0,0.42,0,0,0],[0,0.45,0,0,0],[0,0.48,0,0,0],[0,0.5,0,0,0],[0,0.52,0,0,0],[0,0.55,0,0,0],[0,0.58,0,0,0],[0,0.61,0,0,0],[0,0.65,0,0,0],[0,0.68,0,0,0],[0,0.71,0,0,0],[0,0.74,0,0,0],[0,0.75,0,0,0],[0,0.77,0,0,0],[0,0.81,0,0,0],[0,0.84,0,0,0],[0,0.87,0,0,0],[0,0.9,0,0,0],[0,0.94,0,0,0],[0,0.97,0,0,0],[0,1,0,0,0],[0.25,0,0,0,0],[0.25,1,0,0,0],[0.5,0,0,0,0],[0.5,1,0,0,0],[0.75,0,0,0,0],[0.75,1,0,0,0],[1,0,0,0,0],[1,0.03,0,0,0],[1,0.06,0,0,0],[1,0.1,0,0,0],[1,0.13,0,0,0],[1,0.16,0,0,0],[1,0.19,0,0,0],[1,0.23,0,0,0],[1,0.25,0,0,0],[1,0.26,0,0,0],[1,0.29,0,0,0],[1,0.32,0,0,0],[1,0.35,0,0,0],[1,0.39,0,0,0],[1,0.42,0,0,0],[1,0.45,0,0,0],[1,0.48,0,0,0],[1,0.5,0,0,0],[1,0.52,0,0,0],[1,0.55,0,0,0],[1,0.58,0,0,0],[1,0.61,0,0,0],[1,0.65,0,0,0],[1,0.68,0,0,0],[1,0.71,0,0,0],[1,0.74,0,0,0],[1,0.75,0,0,0],[1,0.77,0,0,0],[1,0.81,0,0,0],[1,0.84,0,0,0],[1,0.87,0,0,0],[1,0.9,0,0,0],[1,0.94,0,0,0],[1,0.97,0,0,0],[1,1,0,0,0]];" parent="1" vertex="1">
          <mxGeometry x="82.5" y="130" width="15" height="1240" as="geometry" />
        </mxCell>
        <mxCell id="VWIVNXtLc2JzitBILpdr-21" style="edgeStyle=orthogonalEdgeStyle;rounded=0;orthogonalLoop=1;jettySize=auto;html=1;exitX=0;exitY=0.45;exitDx=0;exitDy=0;exitPerimeter=0;entryX=1;entryY=0.45;entryDx=0;entryDy=0;entryPerimeter=0;" edge="1" parent="1" source="Eow9V9qrAzXgovBorhqP-100" target="Eow9V9qrAzXgovBorhqP-99">
          <mxGeometry relative="1" as="geometry" />
        </mxCell>
        <mxCell id="VWIVNXtLc2JzitBILpdr-29" style="edgeStyle=orthogonalEdgeStyle;rounded=0;orthogonalLoop=1;jettySize=auto;html=1;exitX=1;exitY=0.61;exitDx=0;exitDy=0;exitPerimeter=0;entryX=1;entryY=0.65;entryDx=0;entryDy=0;entryPerimeter=0;" edge="1" parent="1" source="Eow9V9qrAzXgovBorhqP-100" target="Eow9V9qrAzXgovBorhqP-100">
          <mxGeometry relative="1" as="geometry" />
        </mxCell>
        <mxCell id="VWIVNXtLc2JzitBILpdr-36" style="edgeStyle=orthogonalEdgeStyle;rounded=0;orthogonalLoop=1;jettySize=auto;html=1;exitX=0;exitY=0.68;exitDx=0;exitDy=0;exitPerimeter=0;entryX=1;entryY=0.68;entryDx=0;entryDy=0;entryPerimeter=0;" edge="1" parent="1" source="Eow9V9qrAzXgovBorhqP-100" target="Eow9V9qrAzXgovBorhqP-99">
          <mxGeometry relative="1" as="geometry" />
        </mxCell>
        <mxCell id="VWIVNXtLc2JzitBILpdr-40" style="edgeStyle=orthogonalEdgeStyle;rounded=0;orthogonalLoop=1;jettySize=auto;html=1;exitX=0;exitY=0.84;exitDx=0;exitDy=0;exitPerimeter=0;entryX=1;entryY=0.84;entryDx=0;entryDy=0;entryPerimeter=0;" edge="1" parent="1" source="Eow9V9qrAzXgovBorhqP-100" target="Eow9V9qrAzXgovBorhqP-99">
          <mxGeometry relative="1" as="geometry" />
        </mxCell>
        <mxCell id="Eow9V9qrAzXgovBorhqP-100" value="" style="rounded=0;whiteSpace=wrap;html=1;points=[[0,0,0,0,0],[0,0.03,0,0,0],[0,0.06,0,0,0],[0,0.1,0,0,0],[0,0.13,0,0,0],[0,0.16,0,0,0],[0,0.19,0,0,0],[0,0.23,0,0,0],[0,0.25,0,0,0],[0,0.26,0,0,0],[0,0.29,0,0,0],[0,0.32,0,0,0],[0,0.35,0,0,0],[0,0.39,0,0,0],[0,0.42,0,0,0],[0,0.45,0,0,0],[0,0.48,0,0,0],[0,0.5,0,0,0],[0,0.52,0,0,0],[0,0.55,0,0,0],[0,0.58,0,0,0],[0,0.61,0,0,0],[0,0.65,0,0,0],[0,0.68,0,0,0],[0,0.71,0,0,0],[0,0.74,0,0,0],[0,0.75,0,0,0],[0,0.77,0,0,0],[0,0.81,0,0,0],[0,0.84,0,0,0],[0,0.87,0,0,0],[0,0.9,0,0,0],[0,0.94,0,0,0],[0,0.97,0,0,0],[0,1,0,0,0],[0.25,0,0,0,0],[0.25,1,0,0,0],[0.5,0,0,0,0],[0.5,1,0,0,0],[0.75,0,0,0,0],[0.75,1,0,0,0],[1,0,0,0,0],[1,0.03,0,0,0],[1,0.06,0,0,0],[1,0.1,0,0,0],[1,0.13,0,0,0],[1,0.16,0,0,0],[1,0.19,0,0,0],[1,0.23,0,0,0],[1,0.25,0,0,0],[1,0.26,0,0,0],[1,0.29,0,0,0],[1,0.32,0,0,0],[1,0.35,0,0,0],[1,0.39,0,0,0],[1,0.42,0,0,0],[1,0.45,0,0,0],[1,0.48,0,0,0],[1,0.5,0,0,0],[1,0.52,0,0,0],[1,0.55,0,0,0],[1,0.58,0,0,0],[1,0.61,0,0,0],[1,0.65,0,0,0],[1,0.68,0,0,0],[1,0.71,0,0,0],[1,0.74,0,0,0],[1,0.75,0,0,0],[1,0.77,0,0,0],[1,0.81,0,0,0],[1,0.84,0,0,0],[1,0.87,0,0,0],[1,0.9,0,0,0],[1,0.94,0,0,0],[1,0.97,0,0,0],[1,1,0,0,0]];" parent="1" vertex="1">
          <mxGeometry x="262.5" y="130" width="15" height="1240" as="geometry" />
        </mxCell>
        <mxCell id="VWIVNXtLc2JzitBILpdr-11" style="edgeStyle=orthogonalEdgeStyle;rounded=0;orthogonalLoop=1;jettySize=auto;html=1;exitX=1;exitY=0.16;exitDx=0;exitDy=0;exitPerimeter=0;entryX=0;entryY=0.16;entryDx=0;entryDy=0;entryPerimeter=0;" edge="1" parent="1" source="Eow9V9qrAzXgovBorhqP-101" target="Eow9V9qrAzXgovBorhqP-102">
          <mxGeometry relative="1" as="geometry" />
        </mxCell>
        <mxCell id="VWIVNXtLc2JzitBILpdr-14" style="edgeStyle=orthogonalEdgeStyle;rounded=0;orthogonalLoop=1;jettySize=auto;html=1;exitX=0;exitY=0.23;exitDx=0;exitDy=0;exitPerimeter=0;entryX=1;entryY=0.23;entryDx=0;entryDy=0;entryPerimeter=0;dashed=1;" edge="1" parent="1" source="Eow9V9qrAzXgovBorhqP-101" target="Eow9V9qrAzXgovBorhqP-100">
          <mxGeometry relative="1" as="geometry" />
        </mxCell>
        <mxCell id="VWIVNXtLc2JzitBILpdr-15" style="edgeStyle=orthogonalEdgeStyle;rounded=0;orthogonalLoop=1;jettySize=auto;html=1;exitX=1;exitY=0.29;exitDx=0;exitDy=0;exitPerimeter=0;entryX=0;entryY=0.29;entryDx=0;entryDy=0;entryPerimeter=0;" edge="1" parent="1" source="Eow9V9qrAzXgovBorhqP-101" target="Eow9V9qrAzXgovBorhqP-102">
          <mxGeometry relative="1" as="geometry" />
        </mxCell>
        <mxCell id="VWIVNXtLc2JzitBILpdr-17" style="edgeStyle=orthogonalEdgeStyle;rounded=0;orthogonalLoop=1;jettySize=auto;html=1;exitX=0;exitY=0.35;exitDx=0;exitDy=0;exitPerimeter=0;entryX=1;entryY=0.35;entryDx=0;entryDy=0;entryPerimeter=0;dashed=1;" edge="1" parent="1" source="Eow9V9qrAzXgovBorhqP-101" target="Eow9V9qrAzXgovBorhqP-100">
          <mxGeometry relative="1" as="geometry" />
        </mxCell>
        <mxCell id="Eow9V9qrAzXgovBorhqP-101" value="" style="rounded=0;whiteSpace=wrap;html=1;points=[[0,0,0,0,0],[0,0.03,0,0,0],[0,0.06,0,0,0],[0,0.1,0,0,0],[0,0.13,0,0,0],[0,0.16,0,0,0],[0,0.19,0,0,0],[0,0.23,0,0,0],[0,0.25,0,0,0],[0,0.26,0,0,0],[0,0.29,0,0,0],[0,0.32,0,0,0],[0,0.35,0,0,0],[0,0.39,0,0,0],[0,0.42,0,0,0],[0,0.45,0,0,0],[0,0.48,0,0,0],[0,0.5,0,0,0],[0,0.52,0,0,0],[0,0.55,0,0,0],[0,0.58,0,0,0],[0,0.61,0,0,0],[0,0.65,0,0,0],[0,0.68,0,0,0],[0,0.71,0,0,0],[0,0.74,0,0,0],[0,0.75,0,0,0],[0,0.77,0,0,0],[0,0.81,0,0,0],[0,0.84,0,0,0],[0,0.87,0,0,0],[0,0.9,0,0,0],[0,0.94,0,0,0],[0,0.97,0,0,0],[0,1,0,0,0],[0.25,0,0,0,0],[0.25,1,0,0,0],[0.5,0,0,0,0],[0.5,1,0,0,0],[0.75,0,0,0,0],[0.75,1,0,0,0],[1,0,0,0,0],[1,0.03,0,0,0],[1,0.06,0,0,0],[1,0.1,0,0,0],[1,0.13,0,0,0],[1,0.16,0,0,0],[1,0.19,0,0,0],[1,0.23,0,0,0],[1,0.25,0,0,0],[1,0.26,0,0,0],[1,0.29,0,0,0],[1,0.32,0,0,0],[1,0.35,0,0,0],[1,0.39,0,0,0],[1,0.42,0,0,0],[1,0.45,0,0,0],[1,0.48,0,0,0],[1,0.5,0,0,0],[1,0.52,0,0,0],[1,0.55,0,0,0],[1,0.58,0,0,0],[1,0.61,0,0,0],[1,0.65,0,0,0],[1,0.68,0,0,0],[1,0.71,0,0,0],[1,0.74,0,0,0],[1,0.75,0,0,0],[1,0.77,0,0,0],[1,0.81,0,0,0],[1,0.84,0,0,0],[1,0.87,0,0,0],[1,0.9,0,0,0],[1,0.94,0,0,0],[1,0.97,0,0,0],[1,1,0,0,0]];" parent="1" vertex="1">
          <mxGeometry x="452.5" y="130" width="15" height="1240" as="geometry" />
        </mxCell>
        <mxCell id="VWIVNXtLc2JzitBILpdr-13" style="edgeStyle=orthogonalEdgeStyle;rounded=0;orthogonalLoop=1;jettySize=auto;html=1;exitX=0;exitY=0.19;exitDx=0;exitDy=0;exitPerimeter=0;entryX=1;entryY=0.19;entryDx=0;entryDy=0;entryPerimeter=0;dashed=1;" edge="1" parent="1" source="Eow9V9qrAzXgovBorhqP-102" target="Eow9V9qrAzXgovBorhqP-101">
          <mxGeometry relative="1" as="geometry" />
        </mxCell>
        <mxCell id="VWIVNXtLc2JzitBILpdr-16" style="edgeStyle=orthogonalEdgeStyle;rounded=0;orthogonalLoop=1;jettySize=auto;html=1;exitX=0;exitY=0.32;exitDx=0;exitDy=0;exitPerimeter=0;entryX=1;entryY=0.32;entryDx=0;entryDy=0;entryPerimeter=0;" edge="1" parent="1" source="Eow9V9qrAzXgovBorhqP-102" target="Eow9V9qrAzXgovBorhqP-101">
          <mxGeometry relative="1" as="geometry" />
        </mxCell>
        <mxCell id="Eow9V9qrAzXgovBorhqP-102" value="" style="rounded=0;whiteSpace=wrap;html=1;points=[[0,0,0,0,0],[0,0.03,0,0,0],[0,0.06,0,0,0],[0,0.1,0,0,0],[0,0.13,0,0,0],[0,0.16,0,0,0],[0,0.19,0,0,0],[0,0.23,0,0,0],[0,0.25,0,0,0],[0,0.26,0,0,0],[0,0.29,0,0,0],[0,0.32,0,0,0],[0,0.35,0,0,0],[0,0.39,0,0,0],[0,0.42,0,0,0],[0,0.45,0,0,0],[0,0.48,0,0,0],[0,0.5,0,0,0],[0,0.52,0,0,0],[0,0.55,0,0,0],[0,0.58,0,0,0],[0,0.61,0,0,0],[0,0.65,0,0,0],[0,0.68,0,0,0],[0,0.71,0,0,0],[0,0.74,0,0,0],[0,0.75,0,0,0],[0,0.77,0,0,0],[0,0.81,0,0,0],[0,0.84,0,0,0],[0,0.87,0,0,0],[0,0.9,0,0,0],[0,0.94,0,0,0],[0,0.97,0,0,0],[0,1,0,0,0],[0.25,0,0,0,0],[0.25,1,0,0,0],[0.5,0,0,0,0],[0.5,1,0,0,0],[0.75,0,0,0,0],[0.75,1,0,0,0],[1,0,0,0,0],[1,0.03,0,0,0],[1,0.06,0,0,0],[1,0.1,0,0,0],[1,0.13,0,0,0],[1,0.16,0,0,0],[1,0.19,0,0,0],[1,0.23,0,0,0],[1,0.25,0,0,0],[1,0.26,0,0,0],[1,0.29,0,0,0],[1,0.32,0,0,0],[1,0.35,0,0,0],[1,0.39,0,0,0],[1,0.42,0,0,0],[1,0.45,0,0,0],[1,0.48,0,0,0],[1,0.5,0,0,0],[1,0.52,0,0,0],[1,0.55,0,0,0],[1,0.58,0,0,0],[1,0.61,0,0,0],[1,0.65,0,0,0],[1,0.68,0,0,0],[1,0.71,0,0,0],[1,0.74,0,0,0],[1,0.75,0,0,0],[1,0.77,0,0,0],[1,0.81,0,0,0],[1,0.84,0,0,0],[1,0.87,0,0,0],[1,0.9,0,0,0],[1,0.94,0,0,0],[1,0.97,0,0,0],[1,1,0,0,0]];" parent="1" vertex="1">
          <mxGeometry x="642.5" y="130" width="15" height="1240" as="geometry" />
        </mxCell>
        <mxCell id="Eow9V9qrAzXgovBorhqP-121" value="Par" style="text;html=1;strokeColor=none;fillColor=none;align=center;verticalAlign=middle;whiteSpace=wrap;rounded=0;" parent="1" vertex="1">
          <mxGeometry x="200" y="290" width="60" height="30" as="geometry" />
        </mxCell>
        <mxCell id="Eow9V9qrAzXgovBorhqP-122" value="8. StudentName" style="text;html=1;align=center;verticalAlign=middle;resizable=0;points=[];autosize=1;strokeColor=none;fillColor=none;" parent="1" vertex="1">
          <mxGeometry x="305" y="380" width="110" height="30" as="geometry" />
        </mxCell>
        <mxCell id="Eow9V9qrAzXgovBorhqP-137" value="8.Email" style="text;html=1;strokeColor=none;fillColor=none;align=center;verticalAlign=middle;whiteSpace=wrap;rounded=0;" parent="1" vertex="1">
          <mxGeometry x="300" y="520" width="130" height="30" as="geometry" />
        </mxCell>
        <mxCell id="Eow9V9qrAzXgovBorhqP-187" value="12.login failed" style="text;html=1;strokeColor=none;fillColor=none;align=center;verticalAlign=middle;whiteSpace=wrap;rounded=0;" parent="1" vertex="1">
          <mxGeometry x="-348.75" y="735" width="110" height="30" as="geometry" />
        </mxCell>
        <mxCell id="Eow9V9qrAzXgovBorhqP-193" value="10.login failed message" style="text;html=1;strokeColor=none;fillColor=none;align=center;verticalAlign=middle;whiteSpace=wrap;rounded=0;" parent="1" vertex="1">
          <mxGeometry y="670" width="60" height="30" as="geometry" />
        </mxCell>
        <mxCell id="VWIVNXtLc2JzitBILpdr-2" value="6.findByUsername (usernameOrEmail)" style="text;html=1;strokeColor=none;fillColor=none;align=center;verticalAlign=middle;whiteSpace=wrap;rounded=0;" vertex="1" parent="1">
          <mxGeometry x="530" y="300" width="60" height="30" as="geometry" />
        </mxCell>
        <mxCell id="VWIVNXtLc2JzitBILpdr-3" value="5.login(usernameOrEmail, password)" style="text;html=1;strokeColor=none;fillColor=none;align=center;verticalAlign=middle;whiteSpace=wrap;rounded=0;" vertex="1" parent="1">
          <mxGeometry x="300" y="210" width="130" height="30" as="geometry" />
        </mxCell>
        <mxCell id="VWIVNXtLc2JzitBILpdr-5" value="6.findByEmail (usernameOrEmail)" style="text;html=1;strokeColor=none;fillColor=none;align=center;verticalAlign=middle;whiteSpace=wrap;rounded=0;" vertex="1" parent="1">
          <mxGeometry x="530" y="460" width="60" height="30" as="geometry" />
        </mxCell>
        <mxCell id="VWIVNXtLc2JzitBILpdr-8" value="7.StudentUser" style="text;html=1;align=center;verticalAlign=middle;resizable=0;points=[];autosize=1;strokeColor=none;fillColor=none;" vertex="1" parent="1">
          <mxGeometry x="510" y="500" width="100" height="30" as="geometry" />
        </mxCell>
        <mxCell id="VWIVNXtLc2JzitBILpdr-19" value="ALT" style="text;html=1;strokeColor=none;fillColor=none;align=center;verticalAlign=middle;whiteSpace=wrap;rounded=0;" vertex="1" parent="1">
          <mxGeometry x="-450" y="270" width="60" height="30" as="geometry" />
        </mxCell>
        <mxCell id="VWIVNXtLc2JzitBILpdr-27" value="{usernameOrEmail is not null}" style="text;html=1;strokeColor=none;fillColor=none;align=center;verticalAlign=middle;whiteSpace=wrap;rounded=0;" vertex="1" parent="1">
          <mxGeometry x="-390" y="295" width="192.5" height="30" as="geometry" />
        </mxCell>
        <mxCell id="VWIVNXtLc2JzitBILpdr-35" value="9.passwordEncoder .matches()" style="text;html=1;strokeColor=none;fillColor=none;align=center;verticalAlign=middle;whiteSpace=wrap;rounded=0;" vertex="1" parent="1">
          <mxGeometry x="335" y="900" width="60" height="30" as="geometry" />
        </mxCell>
        <mxCell id="VWIVNXtLc2JzitBILpdr-45" value="&lt;span style=&quot;color: rgb(240, 240, 240); font-family: Helvetica; font-size: 12px; font-style: normal; font-variant-ligatures: normal; font-variant-caps: normal; font-weight: 400; letter-spacing: normal; orphans: 2; text-align: center; text-indent: 0px; text-transform: none; widows: 2; word-spacing: 0px; -webkit-text-stroke-width: 0px; background-color: rgb(42, 37, 47); text-decoration-thickness: initial; text-decoration-style: initial; text-decoration-color: initial; float: none; display: inline !important;&quot;&gt;10.RuntimeException&lt;/span&gt;&lt;br style=&quot;border-color: rgb(0, 0, 0); color: rgb(240, 240, 240); font-family: Helvetica; font-size: 12px; font-style: normal; font-variant-ligatures: normal; font-variant-caps: normal; font-weight: 400; letter-spacing: normal; orphans: 2; text-align: center; text-indent: 0px; text-transform: none; widows: 2; word-spacing: 0px; -webkit-text-stroke-width: 0px; background-color: rgb(42, 37, 47); text-decoration-thickness: initial; text-decoration-style: initial; text-decoration-color: initial;&quot;&gt;&lt;span style=&quot;color: rgb(240, 240, 240); font-family: Helvetica; font-size: 12px; font-style: normal; font-variant-ligatures: normal; font-variant-caps: normal; font-weight: 400; letter-spacing: normal; orphans: 2; text-align: center; text-indent: 0px; text-transform: none; widows: 2; word-spacing: 0px; -webkit-text-stroke-width: 0px; background-color: rgb(42, 37, 47); text-decoration-thickness: initial; text-decoration-style: initial; text-decoration-color: initial; float: none; display: inline !important;&quot;&gt;message&lt;/span&gt;" style="text;html=1;strokeColor=none;fillColor=none;align=center;verticalAlign=middle;whiteSpace=wrap;rounded=0;" vertex="1" parent="1">
          <mxGeometry x="150" y="940" width="60" height="30" as="geometry" />
        </mxCell>
        <mxCell id="VWIVNXtLc2JzitBILpdr-46" value="11.login failed message" style="text;html=1;strokeColor=none;fillColor=none;align=center;verticalAlign=middle;whiteSpace=wrap;rounded=0;" vertex="1" parent="1">
          <mxGeometry y="970" width="60" height="30" as="geometry" />
        </mxCell>
        <mxCell id="VWIVNXtLc2JzitBILpdr-48" value="12.Back to home page" style="text;html=1;strokeColor=none;fillColor=none;align=center;verticalAlign=middle;whiteSpace=wrap;rounded=0;" vertex="1" parent="1">
          <mxGeometry x="-170" y="1015" width="110" height="30" as="geometry" />
        </mxCell>
        <mxCell id="VWIVNXtLc2JzitBILpdr-50" value="10.StudentUser" style="text;html=1;strokeColor=none;fillColor=none;align=center;verticalAlign=middle;whiteSpace=wrap;rounded=0;" vertex="1" parent="1">
          <mxGeometry x="140" y="1140" width="60" height="30" as="geometry" />
        </mxCell>
        <mxCell id="VWIVNXtLc2JzitBILpdr-51" value="12.responseDTO" style="text;html=1;strokeColor=none;fillColor=none;align=center;verticalAlign=middle;whiteSpace=wrap;rounded=0;" vertex="1" parent="1">
          <mxGeometry y="1170" width="60" height="30" as="geometry" />
        </mxCell>
        <mxCell id="VWIVNXtLc2JzitBILpdr-52" value="13.jump to&lt;br&gt;subject page" style="text;html=1;strokeColor=none;fillColor=none;align=center;verticalAlign=middle;whiteSpace=wrap;rounded=0;" vertex="1" parent="1">
          <mxGeometry x="-170" y="1210" width="90" height="30" as="geometry" />
        </mxCell>
        <mxCell id="VWIVNXtLc2JzitBILpdr-53" value="13.login failed" style="text;html=1;strokeColor=none;fillColor=none;align=center;verticalAlign=middle;whiteSpace=wrap;rounded=0;" vertex="1" parent="1">
          <mxGeometry x="-348.75" y="1040" width="110" height="30" as="geometry" />
        </mxCell>
        <mxCell id="VWIVNXtLc2JzitBILpdr-54" value="14.login failed" style="text;html=1;strokeColor=none;fillColor=none;align=center;verticalAlign=middle;whiteSpace=wrap;rounded=0;" vertex="1" parent="1">
          <mxGeometry x="-348.75" y="1260" width="110" height="30" as="geometry" />
        </mxCell>
        <mxCell id="VWIVNXtLc2JzitBILpdr-55" value="{else}" style="text;html=1;strokeColor=none;fillColor=none;align=center;verticalAlign=middle;whiteSpace=wrap;rounded=0;" vertex="1" parent="1">
          <mxGeometry x="-386.25" y="860" width="192.5" height="30" as="geometry" />
        </mxCell>
        <mxCell id="VWIVNXtLc2JzitBILpdr-56" value="ALT" style="text;html=1;strokeColor=none;fillColor=none;align=center;verticalAlign=middle;whiteSpace=wrap;rounded=0;" vertex="1" parent="1">
          <mxGeometry x="-440" y="940" width="60" height="30" as="geometry" />
        </mxCell>
        <mxCell id="VWIVNXtLc2JzitBILpdr-60" value="{password not match}" style="text;html=1;strokeColor=none;fillColor=none;align=center;verticalAlign=middle;whiteSpace=wrap;rounded=0;" vertex="1" parent="1">
          <mxGeometry x="-392.5" y="950" width="192.5" height="30" as="geometry" />
        </mxCell>
        <mxCell id="VWIVNXtLc2JzitBILpdr-61" value="{else}" style="text;html=1;strokeColor=none;fillColor=none;align=center;verticalAlign=middle;whiteSpace=wrap;rounded=0;" vertex="1" parent="1">
          <mxGeometry x="-390" y="1130" width="192.5" height="30" as="geometry" />
        </mxCell>
      </root>
    </mxGraphModel>
  </diagram>
</mxfile>
